<svg height="24" viewBox="0 0 24 24" width="24" xmlns="http://www.w3.org/2000/svg"><g style="transform-origin: center center;"><circle cx="12" cy="12" fill="#FFBF171F" r="12"></circle><g transform="translate(4, 4) scale(0.3333333333333333)"><path clip-rule="evenodd" d="M47.8755 26.4594C47.7497 27.6957 46.555 28.4884 45.336 28.2472L35.1524 26.2326C32.7396 25.7553 31.4202 28.9412 33.464 30.3095L42.0879 36.0831C43.1205 36.7744 43.405 38.1797 42.6203 39.1433C41.5829 40.4174 40.4174 41.5829 39.1433 42.6203C38.1797 43.405 36.7744 43.1205 36.0831 42.0879L30.3095 33.464C28.9412 31.4202 25.7553 32.7396 26.2326 35.1524L28.2472 45.336C28.4884 46.555 27.6957 47.7497 26.4594 47.8755C25.6508 47.9578 24.8303 48 24 48C23.1697 48 22.3492 47.9578 21.5406 47.8755C20.3043 47.7497 19.5116 46.555 19.7528 45.336L21.7674 35.1524C22.2447 32.7396 19.0588 31.4202 17.6905 33.464L11.9169 42.0879C11.2256 43.1205 9.82031 43.405 8.85671 42.6203C7.58264 41.5829 6.41707 40.4174 5.37966 39.1433C4.59504 38.1797 4.87952 36.7744 5.91211 36.0831L14.536 30.3095C16.5798 28.9412 15.2604 25.7553 12.8476 26.2326L2.66404 28.2472C1.44502 28.4884 0.250313 27.6957 0.124475 26.4594C0.0421664 25.6508 0 24.8303 0 24C0 23.1697 0.0421663 22.3492 0.124475 21.5406C0.250313 20.3043 1.44502 19.5116 2.66404 19.7528L12.8476 21.7674C15.2604 22.2447 16.5798 19.0588 14.536 17.6905L5.91211 11.9169C4.87951 11.2256 4.59504 9.82031 5.37966 8.85671C6.41707 7.58264 7.58264 6.41707 8.85671 5.37966C9.82031 4.59504 11.2256 4.87952 11.9169 5.91211L17.6905 14.536C19.0588 16.5798 22.2447 15.2604 21.7674 12.8476L19.7528 2.66404C19.5116 1.44502 20.3043 0.250313 21.5406 0.124475C22.3492 0.0421664 23.1697 0 24 0C24.8303 0 25.6508 0.0421663 26.4594 0.124475C27.6957 0.250313 28.4884 1.44502 28.2472 2.66404L26.2326 12.8476C25.7553 15.2604 28.9412 16.5798 30.3095 14.536L36.0831 5.91211C36.7744 4.87951 38.1797 4.59504 39.1433 5.37966C40.4174 6.41707 41.5829 7.58264 42.6203 8.8567C43.405 9.82031 43.1205 11.2256 42.0879 11.9169L33.464 17.6905C31.4202 19.0588 32.7396 22.2447 35.1524 21.7674L45.336 19.7528C46.555 19.5116 47.7497 20.3043 47.8755 21.5406C47.9578 22.3492 48 23.1697 48 24C48 24.8303 47.9578 25.6508 47.8755 26.4594Z" fill="#FFBF17" fill-rule="evenodd"></path></g></g></svg>